<mxfile host="app.diagrams.net" agent="Mozilla/5.0 (Windows NT 10.0; Win64; x64) AppleWebKit/537.36 (KHTML, like Gecko) Chrome/131.0.0.0 Safari/537.36 Edg/131.0.0.0" version="25.0.3">
  <diagram name="Page-1" id="6PfcRK49W4RpFNgsrd6P">
    <mxGraphModel dx="556" dy="634" grid="1" gridSize="10" guides="1" tooltips="1" connect="1" arrows="1" fold="1" page="1" pageScale="1" pageWidth="850" pageHeight="1100" math="0" shadow="0">
      <root>
        <mxCell id="0" />
        <mxCell id="1" parent="0" />
        <mxCell id="AUWjTUf8E9yl5iJD8bFK-5" style="edgeStyle=orthogonalEdgeStyle;rounded=0;orthogonalLoop=1;jettySize=auto;html=1;" edge="1" parent="1" source="AUWjTUf8E9yl5iJD8bFK-1" target="AUWjTUf8E9yl5iJD8bFK-2">
          <mxGeometry relative="1" as="geometry" />
        </mxCell>
        <mxCell id="AUWjTUf8E9yl5iJD8bFK-1" value="start" style="ellipse;whiteSpace=wrap;html=1;" vertex="1" parent="1">
          <mxGeometry x="220" y="40" width="120" height="80" as="geometry" />
        </mxCell>
        <mxCell id="AUWjTUf8E9yl5iJD8bFK-6" style="edgeStyle=orthogonalEdgeStyle;rounded=0;orthogonalLoop=1;jettySize=auto;html=1;" edge="1" parent="1" source="AUWjTUf8E9yl5iJD8bFK-2" target="AUWjTUf8E9yl5iJD8bFK-3">
          <mxGeometry relative="1" as="geometry" />
        </mxCell>
        <mxCell id="AUWjTUf8E9yl5iJD8bFK-2" value="mun1, num2, total" style="rounded=0;whiteSpace=wrap;html=1;" vertex="1" parent="1">
          <mxGeometry x="220" y="180" width="120" height="60" as="geometry" />
        </mxCell>
        <mxCell id="AUWjTUf8E9yl5iJD8bFK-10" style="edgeStyle=orthogonalEdgeStyle;rounded=0;orthogonalLoop=1;jettySize=auto;html=1;" edge="1" parent="1" source="AUWjTUf8E9yl5iJD8bFK-3" target="AUWjTUf8E9yl5iJD8bFK-7">
          <mxGeometry relative="1" as="geometry" />
        </mxCell>
        <mxCell id="AUWjTUf8E9yl5iJD8bFK-3" value="num1, num2" style="shape=parallelogram;perimeter=parallelogramPerimeter;whiteSpace=wrap;html=1;fixedSize=1;" vertex="1" parent="1">
          <mxGeometry x="220" y="290" width="120" height="60" as="geometry" />
        </mxCell>
        <mxCell id="AUWjTUf8E9yl5iJD8bFK-4" style="edgeStyle=orthogonalEdgeStyle;rounded=0;orthogonalLoop=1;jettySize=auto;html=1;exitX=0.5;exitY=1;exitDx=0;exitDy=0;" edge="1" parent="1" source="AUWjTUf8E9yl5iJD8bFK-2" target="AUWjTUf8E9yl5iJD8bFK-2">
          <mxGeometry relative="1" as="geometry" />
        </mxCell>
        <mxCell id="AUWjTUf8E9yl5iJD8bFK-11" style="edgeStyle=orthogonalEdgeStyle;rounded=0;orthogonalLoop=1;jettySize=auto;html=1;" edge="1" parent="1" source="AUWjTUf8E9yl5iJD8bFK-7" target="AUWjTUf8E9yl5iJD8bFK-8">
          <mxGeometry relative="1" as="geometry" />
        </mxCell>
        <mxCell id="AUWjTUf8E9yl5iJD8bFK-7" value="total = num1 + num2" style="rounded=0;whiteSpace=wrap;html=1;" vertex="1" parent="1">
          <mxGeometry x="220" y="420" width="120" height="60" as="geometry" />
        </mxCell>
        <mxCell id="AUWjTUf8E9yl5iJD8bFK-12" style="edgeStyle=orthogonalEdgeStyle;rounded=0;orthogonalLoop=1;jettySize=auto;html=1;" edge="1" parent="1" source="AUWjTUf8E9yl5iJD8bFK-8" target="AUWjTUf8E9yl5iJD8bFK-9">
          <mxGeometry relative="1" as="geometry" />
        </mxCell>
        <mxCell id="AUWjTUf8E9yl5iJD8bFK-8" value="total" style="shape=parallelogram;perimeter=parallelogramPerimeter;whiteSpace=wrap;html=1;fixedSize=1;" vertex="1" parent="1">
          <mxGeometry x="220" y="540" width="120" height="60" as="geometry" />
        </mxCell>
        <mxCell id="AUWjTUf8E9yl5iJD8bFK-9" value="end" style="ellipse;whiteSpace=wrap;html=1;" vertex="1" parent="1">
          <mxGeometry x="220" y="660" width="120" height="80" as="geometry" />
        </mxCell>
      </root>
    </mxGraphModel>
  </diagram>
</mxfile>
